<svg width="27.909mm" height="27.909mm" version="1.1" viewBox="0 0 27.909 27.909" xmlns="http://www.w3.org/2000/svg">
 <g transform="translate(-267.61 -8.8527)">
  <g transform="translate(157.94 -114.17)">
   <g transform="matrix(.24 0 0 .24 93.959 104.1)">
    <g transform="translate(-.1655 1.3361)">
     <g transform="translate(211.82 -43.83)" fill="#ff2525">
      <path d="m-90.28 233.34c-0.96461-0.60354-2.1499-1.8663-4.3749-4.6608-2.4292-3.0509-3.3791-4.0264-5.0178-5.153-1.8843-1.2954-2.4439-1.9392-2.3364-2.6877 0.0639-0.44491 0.33614-0.67049 1.0134-0.83982 2.1404-0.53512 3.2322-1.0897 5.5854-2.8371 3.161-2.3473 5.2789-3.4321 6.6939-3.4287 1.4627 3e-3 3.2629 0.89604 6.1093 3.0291 2.7868 2.0884 4.5731 3.0537 5.6504 3.0537 0.42528 0 1.0429 0.21839 1.3726 0.48532 0.58796 0.4761 0.5904 0.50045 0.12838 1.2826-0.25903 0.4385-1.2318 1.294-2.1617 1.901-1.1962 0.78094-2.3666 1.932-4.0017 3.9357-3.0463 3.7331-4.7894 5.5928-5.6677 6.047-0.9845 0.50911-2.0485 0.46386-2.9933-0.12728z" fill="#ff2525" stroke-width=".26458"/>
     </g>
     <g>
      <path d="m91.817 178.9c-4.6117-0.46108-10.036-2.6802-12.344-5.0503-2.4598-2.5254-4.0289-6.7483-5.5368-14.901-0.45695-2.4706-0.93277-4.7601-1.0574-5.0878-0.12544-0.32994-0.75608-0.84483-1.4129-1.1536-1.6204-0.76168-1.8331-1.4931-1.5887-5.4627 0.17749-2.8822 0.24189-3.1569 0.89277-3.8078 0.6242-0.62421 0.97689-0.72167 3.2015-0.88472 1.375-0.10078 4.4645-0.40584 6.8656-0.67791 2.4011-0.27207 6.8741-0.69694 9.94-0.94416 5.491-0.44277 5.6492-0.44099 10.583 0.11893 2.7658 0.31386 7.2011 1.0503 9.9038 1.6445 8.2878 1.8219 8.919 1.9022 13.758 1.749 3.6449-0.11541 4.9317-0.27325 7.7944-0.95616 5.4964-1.3111 9.7609-2.0683 14.362-2.5499 4.0396-0.42285 4.6254-0.42299 9.7896-2e-3 3.0211 0.24608 7.4574 0.66959 9.8585 0.94112 2.4011 0.27154 5.4758 0.57498 6.8327 0.67433 3.6179 0.26489 3.7882 0.45498 4.0447 4.5142 0.27133 4.2951 0.0454 5.0266-1.7887 5.793-1.0894 0.45518-1.2581 0.81561-1.796 3.837-1.669 9.3754-2.7412 12.794-5.0092 15.973-3.7857 5.3052-14.311 7.7597-23.318 5.4378-3.9661-1.0224-7.6499-3.0431-10.548-5.7861-2.9387-2.7811-5.1534-6.6322-7.4637-12.978-1.1945-3.2813-1.5326-3.8688-2.5194-4.3792-1.0583-0.54727-2.1422-0.47448-3.1563 0.21196-0.75846 0.51342-1.1042 1.1777-2.5134 4.8286-2.4419 6.3264-3.7206 8.6314-6.3853 11.51-3.8302 4.1371-9.393 6.7161-15.965 7.4015-1.3824 0.14417-2.6921 0.24798-2.9104 0.23067-0.21828-0.0173-1.3494-0.1267-2.5135-0.24309zm8.8635-4.772c5.1757-1.3043 9.2482-4.5275 11.496-9.0983 1.788-3.6363 3.0973-9.6633 2.6864-12.366-0.29701-1.9538-1.8714-3.7556-4.2252-4.8358-4.1056-1.884-9.0921-2.6451-15.91-2.4285-5.0079 0.15913-8.1312 0.65735-11.05 1.7628-2.0901 0.79145-2.9791 1.6115-3.53 3.2563-1.2542 3.7447-0.72521 12.971 1.0095 17.607 0.97302 2.6006 3.2162 4.4218 7.3533 5.9698 2.754 1.0305 8.3659 1.0918 12.171 0.13288zm57.14 0.26535c1.8123-0.40553 5.3582-2.1672 6.5752-3.2666 1.4286-1.2907 2.2909-3.1154 3.0068-6.3627 0.48346-2.1929 0.58594-3.5064 0.59864-7.6729 0.0235-7.7039-0.49259-8.7494-5.0645-10.26-6.7417-2.2282-18.999-1.9301-25.048 0.60918-2.457 1.0314-3.3871 1.713-4.2943 3.147-0.72658 1.1485-0.76584 1.3595-0.74219 3.9907 0.0312 3.4703 0.92239 7.0019 2.6528 10.513 3.2412 6.5756 10.172 10.159 18.753 9.6961 1.3097-0.0707 2.9128-0.24743 3.5624-0.39278zm11.268-34.416c-0.82427-1.3954-4.1376-4.72-6.3344-6.3559-3.9961-2.9758-8.5536-4.69-13.887-5.2232-5.1413-0.51398-8.5331 0.24184-15.423 3.437-5.67 2.6292-7.4071 3.21-9.6204 3.2162-2.2349 6e-3 -3.6899-0.48118-10.011-3.3543-8.0887-3.6765-12.752-4.2606-19.879-2.4898-5.2044 1.2932-11.039 5.1252-14.42 9.4706-1.6924 2.1753-1.7946 2.0658-1.3258-1.4201 1.7405-12.942 9.0852-24.653 20.144-32.12 2.4615-1.662 7.0479-3.9685 9.8427-4.9499 1.8544-0.65117 2.0517-0.78488 1.8903-1.2809-0.0991-0.30465-0.23985-1.3432-0.31266-2.3079-0.15249-2.0204 0.31362-3.9367 1.565-6.4342 0.76431-1.5254 3.1034-5.0379 3.2367-4.8604 0.0347 0.0462-0.0573 1.0602-0.20442 2.2533-0.20344 1.6494-0.18632 2.4403 0.0715 3.3008 0.36381 1.2143 2.2774 3.38 2.6267 2.9726 0.11338-0.13225 0.55032-1.0717 0.97097-2.0877 1.633-3.944 4.531-7.3533 7.543-8.8738 1.2417-0.6268 4.1926-1.5821 4.887-1.5821 0.10506 0-0.23531 0.4719-0.75638 1.0487-2.8676 3.1741-4.0491 7.2413-2.9219 10.058 0.23409 0.58503 0.48602 1.0637 0.55987 1.0637 0.0738 0 0.68599-0.40131 1.3603-0.89181 2.5815-1.8777 4.4268-2.3988 7.0174-1.9816 0.86811 0.1398 1.687 0.32129 1.8196 0.4033 0.13269 0.082-0.33729 0.47953-1.0444 0.88339-1.4326 0.81818-3.4014 2.8177-3.7957 3.8549-0.14149 0.37216-0.25726 1.0834-0.25726 1.5804 0 0.76969 0.10794 0.92817 0.7276 1.0682 9.8781 2.2321 18.637 7.3246 24.991 14.53 5.1781 5.8718 8.8944 13.144 10.491 20.53 0.5476 2.5331 1.1941 7.1099 1.0278 7.2762-0.0504 0.0503-0.31088-0.27977-0.57897-0.7336z" stroke-width=".26458"/>
      <circle cx="148.13" cy="166.03" r="4.6777" fill-rule="evenodd" stroke-linecap="round" stroke-linejoin="round" stroke-width="2.5088"/>
      <circle cx="101.56" cy="164.83" r="4.6777" fill-rule="evenodd" stroke-linecap="round" stroke-linejoin="round" stroke-width="2.5088"/>
     </g>
    </g>
    <rect x="65.486" y="78.829" width="116.29" height="116.29" rx="0" ry="0" fill-opacity="0" stroke-linecap="round" stroke-linejoin="round" stroke-width="3.9574"/>
    <rect x="66.037" y="79.38" width="115.19" height="115.19" rx="0" ry="0" fill-opacity="0"/>
   </g>
  </g>
 </g>
</svg>
